<?xml version="1.0" encoding="utf-8"?>
<!-- Generator: Adobe Illustrator 16.0.0, SVG Export Plug-In . SVG Version: 6.00 Build 0)  -->
<!DOCTYPE svg PUBLIC "-//W3C//DTD SVG 1.1//EN" "http://www.w3.org/Graphics/SVG/1.1/DTD/svg11.dtd">
<svg version="1.1" id="Layer_1" xmlns="http://www.w3.org/2000/svg" xmlns:xlink="http://www.w3.org/1999/xlink" x="0px" y="0px"
	 width="313.167px" height="10.641px" viewBox="-156.083 -0.952 313.167 10.641"
	 enable-background="new -156.083 -0.952 313.167 10.641" xml:space="preserve">
<g>
	<path fill="#231F20" d="M7.702,5.277c-1.236,1.367-2.52,1.835-3.755,1.835c-0.911,0-1.786-0.252-2.938-0.672
		C0.134,6.128-2.612,5-3.704,4.653c-1.02-0.312-1.535-0.371-2.183-0.371c-0.624,0-1.535,0.455-1.535,1.151
		c0,0.252,0.096,0.527,0.323,0.695c0.12,0.096,0.12,0.228-0.012,0.371C-7.277,6.68-7.565,6.835-7.793,6.835
		c-0.288,0-0.636-0.265-0.636-0.768c0-0.288,0.191-0.9,0.911-1.452C-6.737,4.03-6.103,3.778-5.334,3.73
		c1.595-1.283,2.986-1.464,3.861-1.464c1.031,0,1.955,0.336,2.423,0.516c0.407,0.156,2.026,0.852,3.19,1.344
		C5.327,4.63,6.395,4.905,7.113,4.905c0.647,0,1.308-0.228,1.308-0.863c0-0.252-0.084-0.432-0.228-0.54
		C8.122,3.442,8.038,3.347,8.038,3.25c0-0.264,0.275-0.684,0.684-0.684c0.443,0,0.708,0.456,0.708,0.828
		C9.43,4.341,8.386,4.941,7.702,5.277z M3.96,5.013c-0.912-0.36-3.418-1.499-4.271-1.799c-0.707-0.24-1.403-0.372-2.099-0.372
		c-0.852,0-1.559,0.323-1.979,0.911c0.505,0.037,1.14,0.132,2.34,0.552c1.199,0.42,3.405,1.354,4.186,1.618
		C3.001,6.212,3.816,6.44,4.645,6.44c0.911,0,1.715-0.312,2.146-0.983C6.046,5.552,5.052,5.419,3.96,5.013z"/>
</g>
<rect x="-156.083" y="4.689" fill="#B8B8B8" width="142" height="0.9"/>
<rect x="15.083" y="4.239" fill="#B8B8B8" width="142.001" height="0.9"/>
</svg>
